# xmcd
#
# Track frame offsets:
#	150
#	16144
#	44359
#	77724
#	93486
#
# Disc length: 1698 seconds
#
# Revision: 1
# Processed by: cddbd v1.5.1PL0 Copyright (c) Steve Scherf et al.
# Submitted via: audiograbber 1.83.01
#
DISCID=3006a005
DTITLE=DJ Antoine Vs. Mad Mark - Disco Sensation [CD-Single)
DYEAR=2001
DGENRE=House
TTITLE0=Disco Sensation (Radio Mix)
TTITLE1=Disco Sensation (Extended Mix)
TTITLE2=Disco Sensation (Coy Sensation Mix)
TTITLE3=You're Ready For Me Now (Radio Mix)
TTITLE4=You're Ready For Me Now (Extended Mix)
EXTD=
EXTT0=
EXTT1=
EXTT2=
EXTT3=
EXTT4=
PLAYORDER=
